HIERARCHY
ROOT Hips
{
	OFFSET 0.000000 0.000000 0.000000
	CHANNELS 6 Xposition Yposition Zposition Xrotation Yrotation Zrotation
	JOINT Spine
	{
		OFFSET 0.000000 0.049001 0.073502
		CHANNELS 3 Xrotation Yrotation Zrotation
		JOINT Spine1
		{
			OFFSET 0.000000 0.017018 0.096514
			CHANNELS 3 Xrotation Yrotation Zrotation
			JOINT Spine2
			{
				OFFSET 0.000000 0.008542 0.097630
				CHANNELS 3 Xrotation Yrotation Zrotation
				JOINT Spine3
				{
					OFFSET 0.000000 0.000000 0.098003
					CHANNELS 3 Xrotation Yrotation Zrotation
					JOINT Neck
					{
						OFFSET 0.000000 -0.036751 0.257258
						CHANNELS 3 Xrotation Yrotation Zrotation
						JOINT Head
						{
							OFFSET 0.000000 -0.023400 0.132707
							CHANNELS 3 Xrotation Yrotation Zrotation
							End Site
							{
								OFFSET 0.000000 0.000000 0.000000
							}
						}
					}
					JOINT RightShoulder
					{
						OFFSET -0.030410 -0.050683 0.164214
						CHANNELS 3 Xrotation Yrotation Zrotation
						JOINT RightArm
						{
							OFFSET -0.151036 0.000000 0.000000
							CHANNELS 3 Xrotation Yrotation Zrotation
							JOINT RightForeArm
							{
								OFFSET -0.279942 0.000000 0.000000
								CHANNELS 3 Xrotation Yrotation Zrotation
								JOINT RightHand
								{
									OFFSET -0.265034 0.000000 0.000000
									CHANNELS 3 Xrotation Yrotation Zrotation
									JOINT RightHandEnd
									{
										OFFSET -0.071866 0.000000 0.000000
										CHANNELS 3 Xrotation Yrotation Zrotation
										End Site
										{
											OFFSET 0.000000 0.000000 0.000000
										}
									}
									JOINT RightHandThumb1
									{
										OFFSET -0.028746 -0.047911 -0.019164
										CHANNELS 3 Xrotation Yrotation Zrotation
										End Site
										{
											OFFSET 0.000000 0.000000 0.000000
										}
									}
								}
							}
						}
					}
					JOINT LeftShoulder
					{
						OFFSET 0.030410 -0.050683 0.164214
						CHANNELS 3 Xrotation Yrotation Zrotation
						JOINT LeftArm
						{
							OFFSET 0.151036 0.000000 0.000000
							CHANNELS 3 Xrotation Yrotation Zrotation
							JOINT LeftForeArm
							{
								OFFSET 0.279942 0.000000 0.000000
								CHANNELS 3 Xrotation Yrotation Zrotation
								JOINT LeftHand
								{
									OFFSET 0.265034 0.000000 0.000000
									CHANNELS 3 Xrotation Yrotation Zrotation
									JOINT LeftHandEnd
									{
										OFFSET 0.071866 0.000000 0.000000
										CHANNELS 3 Xrotation Yrotation Zrotation
										End Site
										{
											OFFSET 0.000000 0.000000 0.000000
										}
									}
									JOINT LeftHandThumb1
									{
										OFFSET 0.028746 -0.047911 -0.019164
										CHANNELS 3 Xrotation Yrotation Zrotation
										End Site
										{
											OFFSET 0.000000 0.000000 0.000000
										}
									}
								}
							}
						}
					}
				}
			}
		}
	}
	JOINT RightUpLeg
	{
		OFFSET -0.090216 0.000000 -0.026355
		CHANNELS 3 Xrotation Yrotation Zrotation
		JOINT RightLeg
		{
			OFFSET 0.000000 0.000000 -0.402871
			CHANNELS 3 Xrotation Yrotation Zrotation
			JOINT RightFoot
			{
				OFFSET 0.000000 0.000000 -0.414145
				CHANNELS 3 Xrotation Yrotation Zrotation
				JOINT RightToeBase
				{
					OFFSET 0.000000 -0.146359 -0.053270
					CHANNELS 3 Xrotation Yrotation Zrotation
					End Site
					{
						OFFSET 0.000000 0.000000 0.000000
					}
				}
			}
		}
	}
	JOINT LeftUpLeg
	{
		OFFSET 0.090216 0.000000 -0.026355
		CHANNELS 3 Xrotation Yrotation Zrotation
		JOINT LeftLeg
		{
			OFFSET 0.000000 0.000000 -0.402871
			CHANNELS 3 Xrotation Yrotation Zrotation
			JOINT LeftFoot
			{
				OFFSET 0.000000 0.000000 -0.414145
				CHANNELS 3 Xrotation Yrotation Zrotation
				JOINT LeftToeBase
				{
					OFFSET 0.000000 -0.146359 -0.053270
					CHANNELS 3 Xrotation Yrotation Zrotation
					End Site
					{
						OFFSET 0.000000 0.000000 0.000000
					}
				}
			}
		}
	}
}
MOTION
Frames: 6
Frame Time: 0.033333
-0.526202 -0.409994 0.916249 3.094200 -3.802500 91.910300 0.129300 2.773400 0.473100 -1.026900 0.076000 0.005800 6.618100 0.024700 -0.116700 3.061000 -0.308000 -0.070000 11.296200 1.751400 6.747100 -1.822600 4.908800 13.119400 3.388800 6.972100 -5.452400 -7.883500 -27.255300 9.326800 0.000000 0.000000 1.412000 -22.096400 8.244800 -2.662000 0.000000 0.000000 0.000000 0.000000 0.000000 0.000000 1.824800 -6.071100 7.598300 24.360600 5.214400 -21.946200 0.000000 0.000000 -0.804200 -24.152000 -58.421600 -26.953400 0.000000 0.000000 0.000000 0.000000 0.000000 0.000000 5.039500 0.699500 -32.871100 6.828300 0.000000 0.000000 -7.973900 0.731700 -0.099900 -1.579900 0.000000 0.000000 2.801300 4.981700 29.825800 9.447900 0.000000 0.000000 -2.932300 -0.900000 -2.370500 -10.062500 0.000000 0.000000 
-0.526209 -0.410086 0.916275 3.116200 -3.783600 91.839000 0.106700 2.777600 0.481800 -1.040400 0.067600 0.003900 6.665100 0.044500 -0.099200 3.065100 -0.302000 -0.080600 11.226000 1.793500 6.793100 -1.852800 4.950000 13.159000 3.409200 7.019500 -5.435900 -7.902900 -27.307700 9.362200 0.000000 0.000000 1.380900 -22.119600 8.227900 -2.670700 0.000000 0.000000 0.000000 0.000000 0.000000 0.000000 1.885700 -5.962400 7.669900 24.551600 4.858300 -22.063900 0.000000 0.000000 -0.829300 -22.094200 -58.498900 -24.757000 0.000000 0.000000 0.000000 0.000000 0.000000 0.000000 5.033400 0.713700 -32.872600 6.785400 0.000000 0.000000 -7.969600 0.740600 -0.037800 -1.573300 0.000000 0.000000 2.838300 5.035000 29.847500 9.319600 0.000000 0.000000 -2.871100 -0.891900 -2.341600 -10.079100 0.000000 0.000000 
-0.526258 -0.410238 0.916292 3.150600 -3.736400 91.745600 0.061600 2.780300 0.493000 -1.065600 0.056900 0.002200 6.725700 0.068700 -0.079900 3.073500 -0.289500 -0.099500 11.155600 1.854400 6.853400 -1.894600 5.020200 13.189800 3.425300 7.082000 -5.418000 -7.933400 -27.380500 9.423700 0.000000 0.000000 1.319400 -22.144900 8.106800 -2.734500 0.000000 0.000000 0.000000 0.000000 0.000000 0.000000 1.933900 -5.866000 7.722100 24.497300 4.622300 -22.231900 0.000000 0.000000 -0.787400 -19.596200 -57.828100 -21.573300 0.000000 0.000000 0.000000 0.000000 0.000000 0.000000 5.007000 0.733300 -32.879900 6.712400 0.000000 0.000000 -7.955300 0.769500 0.054300 -1.562900 0.000000 0.000000 2.868800 5.114200 29.908700 9.135200 0.000000 0.000000 -2.781600 -0.896200 -2.332300 -10.134500 0.000000 0.000000 
-0.526313 -0.410413 0.916330 3.176500 -3.676100 91.680300 0.011900 2.777500 0.504100 -1.091500 0.048100 -0.000100 6.768300 0.080200 -0.077700 3.085100 -0.273900 -0.122100 11.137100 1.907900 6.905600 -1.963800 5.073900 13.203800 3.431800 7.095900 -5.407700 -7.952500 -27.400700 9.475600 0.000000 0.000000 1.300200 -22.157400 7.929800 -2.828600 0.000000 0.000000 0.000000 0.000000 0.000000 0.000000 1.919000 -5.889800 7.684100 24.229600 4.770300 -22.390500 0.000000 0.000000 -0.590400 -18.037700 -56.348200 -18.966800 0.000000 0.000000 0.000000 0.000000 0.000000 0.000000 4.980200 0.733100 -32.911700 6.612500 0.000000 0.000000 -7.919500 0.793700 0.153300 -1.555300 0.000000 0.000000 2.885200 5.177300 30.024900 8.953900 0.000000 0.000000 -2.698200 -0.901400 -2.388600 -10.147700 0.000000 0.000000 
-0.526341 -0.410604 0.916404 3.187600 -3.613500 91.653700 -0.030200 2.775800 0.513900 -1.113600 0.046500 -0.002400 6.790800 0.069300 -0.105300 3.098300 -0.264200 -0.140800 11.153200 1.947800 6.944300 -2.062200 5.100700 13.221900 3.447300 7.051000 -5.412600 -7.958900 -27.353000 9.502900 0.000000 0.000000 1.366700 -22.165700 7.838100 -2.869600 0.000000 0.000000 0.000000 0.000000 0.000000 0.000000 1.870900 -6.043800 7.552700 24.049300 5.242200 -22.473800 0.000000 0.000000 -0.282400 -17.509400 -54.878700 -17.545300 0.000000 0.000000 0.000000 0.000000 0.000000 0.000000 4.972200 0.704600 -32.978300 6.478200 0.000000 0.000000 -7.857400 0.790300 0.257900 -1.562800 0.000000 0.000000 2.903300 5.216500 30.171000 8.773600 0.000000 0.000000 -2.619500 -0.897400 -2.504500 -10.093900 0.000000 0.000000 
-0.526341 -0.410812 0.916480 3.194300 -3.542000 91.628300 -0.073000 2.779700 0.523500 -1.137700 0.050000 -0.004500 6.820100 0.045200 -0.152300 3.108800 -0.265900 -0.152300 11.142100 1.981800 6.979000 -2.144500 5.141500 13.258400 3.473700 7.001600 -5.430500 -7.978000 -27.298300 9.519900 0.000000 0.000000 1.463600 -22.185500 7.867200 -2.834900 0.000000 0.000000 0.000000 0.000000 0.000000 0.000000 1.852400 -6.225600 7.412400 24.024000 5.813500 -22.458000 0.000000 0.000000 -0.026600 -17.243100 -54.122000 -16.740800 0.000000 0.000000 0.000000 0.000000 0.000000 0.000000 4.971500 0.664400 -33.058100 6.311900 0.000000 0.000000 -7.776100 0.774500 0.375300 -1.588700 0.000000 0.000000 2.920400 5.253500 30.300300 8.580700 0.000000 0.000000 -2.532600 -0.896200 -2.621100 -10.041900 0.000000 0.000000 
